<svg width="62" height="74" viewBox="0 0 62 74" fill="none" xmlns="http://www.w3.org/2000/svg">
<path d="M45.1044 56.2867C43.1052 55.8108 40.8728 45.6421 40.5949 44.3477C46.5253 40.6338 50.5334 33.5718 50.5334 25.4644C50.5334 13.506 41.8174 2.33832 31.0596 2.33832C20.3031 2.33832 11.5858 13.5053 11.5858 25.4644C11.5858 33.5718 15.5939 40.6331 21.5243 44.3477C21.2478 45.6421 19.0147 55.8108 17.0168 56.2867C11.4385 57.6213 10.8086 61.3872 6.5 62.5L31.0596 63.1818H54C49.6934 62.0691 50.682 57.6213 45.1044 56.2867Z" fill="#336278"/>
<path d="M52.5016 20.6487H51.3786V20.4645C51.3786 9.25411 42.2652 0.134796 31.0622 0.134796C19.8599 0.134796 10.7452 9.25411 10.7452 20.4645V20.5808H9.63253C7.13385 20.5808 5.61475 24.2495 5.61475 28.7775C5.61475 33.3055 6.99493 36.9004 9.63253 36.9004H11.3636V30.7961C11.3662 30.7961 11.3687 30.7974 11.3713 30.7974H13.483C13.8274 30.7974 14.1065 30.5168 14.1065 30.1728V20.4645C14.1065 11.1111 21.7143 3.50217 31.0635 3.50217C40.4101 3.50217 48.0128 11.1117 48.0128 20.4645V30.1728C48.0128 30.5174 48.2926 30.7974 48.6376 30.7974H50.5522V39.4951C50.5522 41.3359 48.005 41.5584 47.7388 41.5752H34.2478C33.7438 41.5752 33.3302 41.9877 33.3302 42.4901C33.3302 42.9925 33.7438 43.3998 34.2478 43.3998H47.7853C49.3684 43.3184 52.3756 42.3892 52.3756 39.4951V37.0433H52.501C54.9893 37.0433 56.5078 33.3727 56.5078 28.8454C56.5084 24.3219 55.1334 20.6487 52.5016 20.6487Z" fill="#1D4354"/>
<path d="M35.5252 44.0613H29.41C29.1825 44.0613 28.9971 43.8776 28.9971 43.6494V40.9984C28.9971 40.7702 29.1819 40.5853 29.41 40.5853H35.5252C35.7533 40.5853 35.9406 40.7689 35.9406 40.9984V43.6494C35.9406 43.8776 35.7533 44.0613 35.5252 44.0613Z" fill="#336278"/>
<path d="M10.667 20.5808H13.8525C14.0367 20.5808 14.1885 20.7302 14.1885 20.917V36.6314C14.1885 36.8189 14.0367 36.9702 13.8525 36.9702H10.667V20.5808Z" fill="#1D4354"/>
<path d="M51.4568 37.044H48.2771C48.0917 37.044 47.9353 36.8894 47.9353 36.7019V20.9888C47.9353 20.8071 48.0917 20.65 48.2771 20.65H51.4568V37.044Z" fill="#1D4354"/>
<path d="M61.5043 60.8063C56.4255 56.8331 50.0777 54.1589 43.1813 53.4146C43.1813 53.4146 43.0527 53.5006 42.9971 53.5498C40.6109 55.4352 36.1744 56.7193 31.0607 56.7562C25.9471 56.7193 21.5119 55.4352 19.1256 53.5498C19.0688 53.5006 18.9415 53.4146 18.9415 53.4146C12.0438 54.1582 5.6966 56.8331 0.617188 60.8076C8.26894 68.8497 19.0733 73.8652 31.0607 73.8652C43.0469 73.8652 53.8512 68.8491 61.5043 60.8063Z" fill="#1D4354"/>
</svg>
