<svg width="14" height="14" viewBox="0 0 14 14" fill="none" xmlns="http://www.w3.org/2000/svg">
<path fill-rule="evenodd" clip-rule="evenodd" d="M4.60589 9.39404C4.78688 9.42104 4.97888 9.44204 5.18487 9.45604C5.28987 9.46404 5.38687 9.51604 5.44987 9.60003C6.41284 10.871 6.75484 12.49 6.41784 13.9999C6.65684 13.8399 6.87883 13.6569 7.08183 13.4539C8.1538 12.383 8.60779 10.843 8.2958 9.33504C8.2598 9.16104 8.3548 8.98605 8.51979 8.92105C9.64377 8.48106 10.6447 7.82708 11.4957 6.9761C13.3847 5.08714 14.2977 2.46821 13.9137 0.0852639C11.5387 -0.297727 8.89878 0.627251 7.02383 2.50321C6.17185 3.35418 5.51687 4.35516 5.07788 5.47813C5.01288 5.64313 4.83688 5.73713 4.66389 5.70313C3.17192 5.39614 1.60996 5.85212 0.545987 6.9161C0.341992 7.12009 0.158996 7.34109 0 7.57908C1.48996 7.24909 3.15492 7.60508 4.39889 8.54906C4.48289 8.61306 4.53489 8.70905 4.54289 8.81305C4.55789 9.02505 4.57889 9.21704 4.60589 9.39404Z" fill="#14A800"/>
</svg>
